<svg width="125" height="101" viewBox="0 0 125 101" fill="none" xmlns="http://www.w3.org/2000/svg">
<path d="M11.268 21L9.864 17.742H3.24L1.836 21H0.324L5.904 8.31H7.182L12.762 21H11.268ZM3.762 16.518H9.342L6.552 10.02L3.762 16.518ZM20.2883 12.252H21.7462L17.9663 21H16.5983L12.8363 12.252H14.3843L17.3183 19.416L20.2883 12.252ZM26.6581 12.018C27.7741 12.018 28.6021 12.306 29.1421 12.882C29.6941 13.446 29.9701 14.31 29.9701 15.474V21H28.5481V19.506C28.3201 20.022 27.9721 20.424 27.5041 20.712C27.0361 20.988 26.4961 21.126 25.8841 21.126C25.3201 21.126 24.7981 21.012 24.3181 20.784C23.8501 20.556 23.4781 20.238 23.2021 19.83C22.9261 19.422 22.7881 18.972 22.7881 18.48C22.7881 17.82 22.9561 17.31 23.2921 16.95C23.6281 16.578 24.1801 16.314 24.9481 16.158C25.7161 15.99 26.7841 15.906 28.1521 15.906H28.5481V15.312C28.5481 14.58 28.3981 14.052 28.0981 13.728C27.7981 13.392 27.3121 13.224 26.6401 13.224C25.6321 13.224 24.6301 13.536 23.6341 14.16L23.1481 13.098C23.6041 12.774 24.1501 12.516 24.7861 12.324C25.4341 12.12 26.0581 12.018 26.6581 12.018ZM26.0821 19.974C26.8021 19.974 27.3901 19.734 27.8461 19.254C28.3141 18.762 28.5481 18.132 28.5481 17.364V16.842H28.2241C27.1681 16.842 26.3641 16.89 25.8121 16.986C25.2601 17.07 24.8641 17.22 24.6241 17.436C24.3961 17.64 24.2821 17.946 24.2821 18.354C24.2821 18.822 24.4501 19.212 24.7861 19.524C25.1341 19.824 25.5661 19.974 26.0821 19.974ZM32.6391 21V12.234H34.0971V21H32.6391ZM32.4951 8.436H34.2591V10.074H32.4951V8.436ZM36.8227 21V8.31H38.2807V21H36.8227ZM44.5703 12.018C45.6863 12.018 46.5143 12.306 47.0543 12.882C47.6063 13.446 47.8823 14.31 47.8823 15.474V21H46.4603V19.506C46.2323 20.022 45.8843 20.424 45.4163 20.712C44.9483 20.988 44.4083 21.126 43.7963 21.126C43.2323 21.126 42.7103 21.012 42.2303 20.784C41.7623 20.556 41.3903 20.238 41.1143 19.83C40.8383 19.422 40.7003 18.972 40.7003 18.48C40.7003 17.82 40.8683 17.31 41.2043 16.95C41.5403 16.578 42.0923 16.314 42.8603 16.158C43.6283 15.99 44.6963 15.906 46.0643 15.906H46.4603V15.312C46.4603 14.58 46.3103 14.052 46.0103 13.728C45.7103 13.392 45.2243 13.224 44.5523 13.224C43.5443 13.224 42.5423 13.536 41.5463 14.16L41.0603 13.098C41.5163 12.774 42.0623 12.516 42.6983 12.324C43.3463 12.12 43.9703 12.018 44.5703 12.018ZM43.9943 19.974C44.7143 19.974 45.3023 19.734 45.7583 19.254C46.2263 18.762 46.4603 18.132 46.4603 17.364V16.842H46.1363C45.0803 16.842 44.2763 16.89 43.7243 16.986C43.1723 17.07 42.7763 17.22 42.5363 17.436C42.3083 17.64 42.1943 17.946 42.1943 18.354C42.1943 18.822 42.3623 19.212 42.6983 19.524C43.0463 19.824 43.4783 19.974 43.9943 19.974ZM54.9612 12.018C55.7292 12.018 56.4072 12.204 56.9952 12.576C57.5832 12.948 58.0392 13.476 58.3632 14.16C58.6872 14.844 58.8492 15.636 58.8492 16.536C58.8492 17.448 58.6872 18.252 58.3632 18.948C58.0392 19.632 57.5832 20.166 56.9952 20.55C56.4072 20.934 55.7292 21.126 54.9612 21.126C54.2772 21.126 53.6772 20.976 53.1612 20.676C52.6572 20.376 52.2732 19.95 52.0092 19.398V21H50.5512V8.31H52.0092V13.746C52.2732 13.194 52.6572 12.768 53.1612 12.468C53.6772 12.168 54.2772 12.018 54.9612 12.018ZM54.6732 19.92C55.5252 19.92 56.1852 19.626 56.6532 19.038C57.1212 18.438 57.3552 17.604 57.3552 16.536C57.3552 15.492 57.1212 14.682 56.6532 14.106C56.1852 13.53 55.5252 13.242 54.6732 13.242C53.8212 13.242 53.1612 13.53 52.6932 14.106C52.2372 14.682 52.0092 15.504 52.0092 16.572C52.0092 17.64 52.2372 18.468 52.6932 19.056C53.1612 19.632 53.8212 19.92 54.6732 19.92ZM61.0277 21V8.31H62.4857V21H61.0277ZM72.5553 16.842H66.1473C66.1953 17.862 66.4713 18.636 66.9753 19.164C67.4793 19.68 68.1933 19.938 69.1173 19.938C70.1373 19.938 71.0733 19.59 71.9253 18.894L72.4113 19.956C72.0273 20.316 71.5353 20.604 70.9353 20.82C70.3353 21.024 69.7233 21.126 69.0993 21.126C67.7313 21.126 66.6513 20.724 65.8593 19.92C65.0793 19.116 64.6893 18.006 64.6893 16.59C64.6893 15.69 64.8633 14.898 65.2113 14.214C65.5593 13.518 66.0453 12.978 66.6693 12.594C67.3053 12.21 68.0253 12.018 68.8293 12.018C69.9933 12.018 70.9053 12.402 71.5653 13.17C72.2253 13.926 72.5553 14.97 72.5553 16.302V16.842ZM68.8473 13.152C68.0793 13.152 67.4613 13.392 66.9933 13.872C66.5373 14.352 66.2673 15.03 66.1833 15.906H71.2773C71.2533 15.018 71.0313 14.34 70.6113 13.872C70.1913 13.392 69.6033 13.152 68.8473 13.152ZM82.9801 21.126C82.1521 21.126 81.4201 20.94 80.7841 20.568C80.1601 20.196 79.6741 19.668 79.3261 18.984C78.9901 18.288 78.8221 17.484 78.8221 16.572C78.8221 15.66 78.9901 14.862 79.3261 14.178C79.6741 13.482 80.1601 12.948 80.7841 12.576C81.4201 12.204 82.1521 12.018 82.9801 12.018C83.8081 12.018 84.5401 12.204 85.1761 12.576C85.8121 12.948 86.2981 13.482 86.6341 14.178C86.9821 14.862 87.1561 15.66 87.1561 16.572C87.1561 17.484 86.9821 18.288 86.6341 18.984C86.2981 19.668 85.8121 20.196 85.1761 20.568C84.5401 20.94 83.8081 21.126 82.9801 21.126ZM82.9801 19.92C83.8441 19.92 84.5041 19.638 84.9601 19.074C85.4281 18.498 85.6621 17.664 85.6621 16.572C85.6621 15.504 85.4281 14.682 84.9601 14.106C84.4921 13.518 83.8321 13.224 82.9801 13.224C82.1281 13.224 81.4681 13.518 81.0001 14.106C80.5321 14.682 80.2981 15.504 80.2981 16.572C80.2981 17.652 80.5261 18.48 80.9821 19.056C81.4501 19.632 82.1161 19.92 82.9801 19.92ZM93.7385 12.018C95.8385 12.018 96.8885 13.176 96.8885 15.492V21H95.4305V15.582C95.4305 14.766 95.2685 14.172 94.9445 13.8C94.6325 13.428 94.1285 13.242 93.4325 13.242C92.6285 13.242 91.9865 13.488 91.5065 13.98C91.0265 14.472 90.7865 15.138 90.7865 15.978V21H89.3285V12.234H90.7685V13.674C91.0565 13.134 91.4585 12.726 91.9745 12.45C92.4905 12.162 93.0785 12.018 93.7385 12.018Z" fill="#3A3D42"/>
<path d="M9.55531 58.4897C9.13883 58.9062 9 59.6004 9 60.4333V91.1145C9 91.9475 9.27766 92.6416 9.69414 93.0581L9.83297 93.1969L27.0477 75.9822V75.7045L9.55531 58.4897Z" fill="url(#paint0_linear_68_1034)"/>
<path d="M32.6007 81.8131L26.9087 76.1212V75.7047L32.6007 70.0127L32.7395 70.1515L39.5421 74.0387C41.4857 75.1494 41.4857 76.9541 39.5421 78.0648L32.6007 81.8131V81.8131Z" fill="url(#paint1_linear_68_1034)"/>
<path d="M32.7396 81.6741L26.9088 75.8433L9.55518 93.1969C10.2493 93.891 11.2211 93.891 12.4706 93.3357L32.7396 81.6741" fill="url(#paint2_linear_68_1034)"/>
<path d="M32.7396 70.0128L12.4706 58.4901C11.2211 57.7959 10.2493 57.9347 9.55518 58.6289L26.9088 75.8436L32.7396 70.0128V70.0128Z" fill="url(#paint3_linear_68_1034)"/>
<path opacity="0.2" d="M32.6007 81.5352L12.4706 92.9191C11.3599 93.6133 10.3881 93.4744 9.69401 92.9191L9.55518 93.0579L9.69401 93.1968C10.3881 93.7521 11.3599 93.8909 12.4706 93.1968L32.6007 81.5352Z" fill="black"/>
<path opacity="0.2" d="M9.55531 92.9192C9.13883 92.5027 9 91.8086 9 90.9756V91.1144C9 91.9474 9.27766 92.6415 9.69414 93.058V92.9192H9.55531ZM39.5423 77.648L32.6009 81.5352L32.7397 81.6741L39.5423 77.7869C40.5141 77.2315 40.9306 76.5374 40.9306 75.8433C40.9306 76.5374 40.3753 77.0927 39.5423 77.648V77.648Z" fill="black"/>
<path opacity="0.2" d="M12.4707 58.6286L39.5423 74.0386C40.3753 74.5939 40.9306 75.1492 40.9306 75.8434C40.9306 75.1492 40.5141 74.4551 39.5423 73.8998L12.4707 58.4898C10.5271 57.3792 9 58.2121 9 60.4334V60.5722C9 58.4898 10.5271 57.518 12.4707 58.6286Z" fill="white"/>
<path d="M109.539 76.6174C109.502 72.1917 113.161 70.0406 113.322 69.9417C111.245 66.9253 108.031 66.505 106.906 66.4679C104.211 66.1836 101.59 68.0874 100.218 68.0874C98.8206 68.0874 96.6943 66.505 94.4196 66.5421C91.4898 66.5915 88.733 68.2852 87.2371 70.9307C84.1342 76.3083 86.4459 84.2202 89.4253 88.5717C90.9211 90.6981 92.6518 93.084 94.9389 92.9975C97.1641 92.9109 98.0047 91.5758 100.687 91.5758C103.358 91.5758 104.136 92.9975 106.461 92.948C108.859 92.9109 110.355 90.8093 111.801 88.6583C113.519 86.2229 114.212 83.8123 114.236 83.6886C114.175 83.6639 109.588 81.9085 109.539 76.6174" fill="#4A4848"/>
<path d="M105.151 63.6125C106.35 62.1167 107.166 60.0769 106.943 58C105.212 58.0742 103.037 59.1991 101.788 60.6703C100.688 61.9683 99.6988 64.0823 99.946 66.0726C101.899 66.2209 103.902 65.0836 105.151 63.6125" fill="#4A4848"/>
<defs>
<linearGradient id="paint0_linear_68_1034" x1="25.3818" y1="60.1696" x2="2.08216" y2="83.4678" gradientUnits="userSpaceOnUse">
<stop stop-color="#00A0FF"/>
<stop offset="0.007" stop-color="#00A1FF"/>
<stop offset="0.26" stop-color="#00BEFF"/>
<stop offset="0.512" stop-color="#00D2FF"/>
<stop offset="0.76" stop-color="#00DFFF"/>
<stop offset="1" stop-color="#00E3FF"/>
</linearGradient>
<linearGradient id="paint1_linear_68_1034" x1="42.0882" y1="75.8449" x2="8.49584" y2="75.8449" gradientUnits="userSpaceOnUse">
<stop stop-color="#FFE000"/>
<stop offset="0.409" stop-color="#FFBD00"/>
<stop offset="0.775" stop-color="#FFA500"/>
<stop offset="1" stop-color="#FF9C00"/>
</linearGradient>
<linearGradient id="paint2_linear_68_1034" x1="29.584" y1="79.0308" x2="-2.01064" y2="110.625" gradientUnits="userSpaceOnUse">
<stop stop-color="#FF3A44"/>
<stop offset="1" stop-color="#C31162"/>
</linearGradient>
<linearGradient id="paint3_linear_68_1034" x1="5.24732" y1="48.3222" x2="19.3565" y2="62.4314" gradientUnits="userSpaceOnUse">
<stop stop-color="#32A071"/>
<stop offset="0.069" stop-color="#2DA771"/>
<stop offset="0.476" stop-color="#15CF74"/>
<stop offset="0.801" stop-color="#06E775"/>
<stop offset="1" stop-color="#00F076"/>
</linearGradient>
</defs>
</svg>
